<svg xmlns="http://www.w3.org/2000/svg" viewBox="0 0 624 600" shape-rendering="crispEdges">
<rect x="0" y="0" width="624" height="600" fill="#170f2b" opacity="1"/>
<g transform="translate(72,72)"><rect x="-72" y="340" width="768" height="3" fill="#ff71ce" opacity="0.5"/><rect x="-72" y="374" width="768" height="3" fill="#ff71ce" opacity="0.5"/><rect x="-72" y="408" width="768" height="3" fill="#ff71ce" opacity="0.5"/><rect x="-72" y="442" width="768" height="3" fill="#ff71ce" opacity="0.5"/><rect x="-72" y="476" width="768" height="3" fill="#ff71ce" opacity="0.5"/></g>
<rect x="24" y="24" width="24" height="24" fill="#9fd8f5" opacity="1"/>
<rect x="48" y="24" width="24" height="24" fill="#9fd8f5" opacity="1"/>
<rect x="96" y="24" width="24" height="24" fill="#9fd8f5" opacity="1"/>
<rect x="120" y="24" width="24" height="24" fill="#9fd8f5" opacity="1"/>
<rect x="168" y="24" width="24" height="24" fill="#9fd8f5" opacity="1"/>
<rect x="192" y="24" width="24" height="24" fill="#9fd8f5" opacity="1"/>
<rect x="408" y="24" width="24" height="24" fill="#9fd8f5" opacity="1"/>
<rect x="432" y="24" width="24" height="24" fill="#9fd8f5" opacity="1"/>
<rect x="480" y="24" width="24" height="24" fill="#9fd8f5" opacity="1"/>
<rect x="504" y="24" width="24" height="24" fill="#9fd8f5" opacity="1"/>
<rect x="552" y="24" width="24" height="24" fill="#9fd8f5" opacity="1"/>
<rect x="576" y="24" width="24" height="24" fill="#9fd8f5" opacity="1"/>
<rect x="24" y="48" width="24" height="24" fill="#9fd8f5" opacity="1"/>
<rect x="48" y="48" width="24" height="24" fill="#9fd8f5" opacity="1"/>
<rect x="96" y="48" width="24" height="24" fill="#9fd8f5" opacity="1"/>
<rect x="120" y="48" width="24" height="24" fill="#9fd8f5" opacity="1"/>
<rect x="168" y="48" width="24" height="24" fill="#9fd8f5" opacity="1"/>
<rect x="192" y="48" width="24" height="24" fill="#9fd8f5" opacity="1"/>
<rect x="408" y="48" width="24" height="24" fill="#9fd8f5" opacity="1"/>
<rect x="432" y="48" width="24" height="24" fill="#9fd8f5" opacity="1"/>
<rect x="480" y="48" width="24" height="24" fill="#9fd8f5" opacity="1"/>
<rect x="504" y="48" width="24" height="24" fill="#9fd8f5" opacity="1"/>
<rect x="552" y="48" width="24" height="24" fill="#9fd8f5" opacity="1"/>
<rect x="576" y="48" width="24" height="24" fill="#9fd8f5" opacity="1"/>
<rect x="24" y="72" width="24" height="24" fill="#9fd8f5" opacity="1"/>
<rect x="48" y="72" width="24" height="24" fill="#9fd8f5" opacity="1"/>
<rect x="72" y="72" width="24" height="24" fill="#9fd8f5" opacity="1"/>
<rect x="96" y="72" width="24" height="24" fill="#9fd8f5" opacity="1"/>
<rect x="120" y="72" width="24" height="24" fill="#9fd8f5" opacity="1"/>
<rect x="144" y="72" width="24" height="24" fill="#9fd8f5" opacity="1"/>
<rect x="168" y="72" width="24" height="24" fill="#9fd8f5" opacity="1"/>
<rect x="192" y="72" width="24" height="24" fill="#9fd8f5" opacity="1"/>
<rect x="216" y="72" width="24" height="24" fill="#9fd8f5" opacity="1"/>
<rect x="384" y="72" width="24" height="24" fill="#9fd8f5" opacity="1"/>
<rect x="408" y="72" width="24" height="24" fill="#9fd8f5" opacity="1"/>
<rect x="432" y="72" width="24" height="24" fill="#9fd8f5" opacity="1"/>
<rect x="456" y="72" width="24" height="24" fill="#9fd8f5" opacity="1"/>
<rect x="480" y="72" width="24" height="24" fill="#9fd8f5" opacity="1"/>
<rect x="504" y="72" width="24" height="24" fill="#9fd8f5" opacity="1"/>
<rect x="528" y="72" width="24" height="24" fill="#9fd8f5" opacity="1"/>
<rect x="552" y="72" width="24" height="24" fill="#9fd8f5" opacity="1"/>
<rect x="576" y="72" width="24" height="24" fill="#9fd8f5" opacity="1"/>
<rect x="24" y="96" width="24" height="24" fill="#9fd8f5" opacity="1"/>
<rect x="48" y="96" width="24" height="24" fill="#9fd8f5" opacity="1"/>
<rect x="72" y="96" width="24" height="24" fill="#9fd8f5" opacity="1"/>
<rect x="96" y="96" width="24" height="24" fill="#9fd8f5" opacity="1"/>
<rect x="120" y="96" width="24" height="24" fill="#9fd8f5" opacity="1"/>
<rect x="144" y="96" width="24" height="24" fill="#9fd8f5" opacity="1"/>
<rect x="168" y="96" width="24" height="24" fill="#9fd8f5" opacity="1"/>
<rect x="192" y="96" width="24" height="24" fill="#9fd8f5" opacity="1"/>
<rect x="216" y="96" width="24" height="24" fill="#9fd8f5" opacity="1"/>
<rect x="288" y="96" width="24" height="24" fill="#ff71ce" opacity="1"/>
<rect x="312" y="96" width="24" height="24" fill="#ffd94a" opacity="1"/>
<rect x="384" y="96" width="24" height="24" fill="#9fd8f5" opacity="1"/>
<rect x="408" y="96" width="24" height="24" fill="#9fd8f5" opacity="1"/>
<rect x="432" y="96" width="24" height="24" fill="#9fd8f5" opacity="1"/>
<rect x="456" y="96" width="24" height="24" fill="#9fd8f5" opacity="1"/>
<rect x="480" y="96" width="24" height="24" fill="#9fd8f5" opacity="1"/>
<rect x="504" y="96" width="24" height="24" fill="#9fd8f5" opacity="1"/>
<rect x="528" y="96" width="24" height="24" fill="#9fd8f5" opacity="1"/>
<rect x="552" y="96" width="24" height="24" fill="#9fd8f5" opacity="1"/>
<rect x="576" y="96" width="24" height="24" fill="#9fd8f5" opacity="1"/>
<rect x="24" y="120" width="24" height="24" fill="#9fd8f5" opacity="1"/>
<rect x="48" y="120" width="24" height="24" fill="#9fd8f5" opacity="1"/>
<rect x="72" y="120" width="24" height="24" fill="#9fd8f5" opacity="1"/>
<rect x="96" y="120" width="24" height="24" fill="#9fd8f5" opacity="1"/>
<rect x="120" y="120" width="24" height="24" fill="#9fd8f5" opacity="1"/>
<rect x="144" y="120" width="24" height="24" fill="#9fd8f5" opacity="1"/>
<rect x="168" y="120" width="24" height="24" fill="#9fd8f5" opacity="1"/>
<rect x="192" y="120" width="24" height="24" fill="#9fd8f5" opacity="1"/>
<rect x="216" y="120" width="24" height="24" fill="#9fd8f5" opacity="1"/>
<rect x="288" y="120" width="24" height="24" fill="#ff71ce" opacity="1"/>
<rect x="312" y="120" width="24" height="24" fill="#ff71ce" opacity="1"/>
<rect x="384" y="120" width="24" height="24" fill="#9fd8f5" opacity="1"/>
<rect x="408" y="120" width="24" height="24" fill="#9fd8f5" opacity="1"/>
<rect x="432" y="120" width="24" height="24" fill="#9fd8f5" opacity="1"/>
<rect x="456" y="120" width="24" height="24" fill="#9fd8f5" opacity="1"/>
<rect x="480" y="120" width="24" height="24" fill="#9fd8f5" opacity="1"/>
<rect x="504" y="120" width="24" height="24" fill="#9fd8f5" opacity="1"/>
<rect x="528" y="120" width="24" height="24" fill="#9fd8f5" opacity="1"/>
<rect x="552" y="120" width="24" height="24" fill="#9fd8f5" opacity="1"/>
<rect x="576" y="120" width="24" height="24" fill="#9fd8f5" opacity="1"/>
<rect x="24" y="144" width="24" height="24" fill="#9fd8f5" opacity="1"/>
<rect x="48" y="144" width="24" height="24" fill="#9fd8f5" opacity="1"/>
<rect x="72" y="144" width="24" height="24" fill="#9fd8f5" opacity="1"/>
<rect x="96" y="144" width="24" height="24" fill="#9fd8f5" opacity="1"/>
<rect x="120" y="144" width="24" height="24" fill="#9fd8f5" opacity="1"/>
<rect x="144" y="144" width="24" height="24" fill="#9fd8f5" opacity="1"/>
<rect x="168" y="144" width="24" height="24" fill="#9fd8f5" opacity="1"/>
<rect x="192" y="144" width="24" height="24" fill="#9fd8f5" opacity="1"/>
<rect x="216" y="144" width="24" height="24" fill="#9fd8f5" opacity="1"/>
<rect x="288" y="144" width="24" height="24" fill="#ff71ce" opacity="1"/>
<rect x="312" y="144" width="24" height="24" fill="#ff71ce" opacity="1"/>
<rect x="384" y="144" width="24" height="24" fill="#9fd8f5" opacity="1"/>
<rect x="408" y="144" width="24" height="24" fill="#9fd8f5" opacity="1"/>
<rect x="432" y="144" width="24" height="24" fill="#9fd8f5" opacity="1"/>
<rect x="456" y="144" width="24" height="24" fill="#9fd8f5" opacity="1"/>
<rect x="480" y="144" width="24" height="24" fill="#9fd8f5" opacity="1"/>
<rect x="504" y="144" width="24" height="24" fill="#9fd8f5" opacity="1"/>
<rect x="528" y="144" width="24" height="24" fill="#9fd8f5" opacity="1"/>
<rect x="552" y="144" width="24" height="24" fill="#9fd8f5" opacity="1"/>
<rect x="576" y="144" width="24" height="24" fill="#9fd8f5" opacity="1"/>
<rect x="48" y="168" width="24" height="24" fill="#9fd8f5" opacity="1"/>
<rect x="72" y="168" width="24" height="24" fill="#9fd8f5" opacity="1"/>
<rect x="96" y="168" width="24" height="24" fill="#9fd8f5" opacity="1"/>
<rect x="120" y="168" width="24" height="24" fill="#9fd8f5" opacity="1"/>
<rect x="144" y="168" width="24" height="24" fill="#9fd8f5" opacity="1"/>
<rect x="168" y="168" width="24" height="24" fill="#9fd8f5" opacity="1"/>
<rect x="192" y="168" width="24" height="24" fill="#9fd8f5" opacity="1"/>
<rect x="216" y="168" width="24" height="24" fill="#9fd8f5" opacity="1"/>
<rect x="264" y="168" width="24" height="24" fill="#ff71ce" opacity="1"/>
<rect x="288" y="168" width="24" height="24" fill="#ff71ce" opacity="1"/>
<rect x="312" y="168" width="24" height="24" fill="#ff71ce" opacity="1"/>
<rect x="336" y="168" width="24" height="24" fill="#ff71ce" opacity="1"/>
<rect x="384" y="168" width="24" height="24" fill="#9fd8f5" opacity="1"/>
<rect x="408" y="168" width="24" height="24" fill="#9fd8f5" opacity="1"/>
<rect x="432" y="168" width="24" height="24" fill="#9fd8f5" opacity="1"/>
<rect x="456" y="168" width="24" height="24" fill="#9fd8f5" opacity="1"/>
<rect x="480" y="168" width="24" height="24" fill="#9fd8f5" opacity="1"/>
<rect x="504" y="168" width="24" height="24" fill="#9fd8f5" opacity="1"/>
<rect x="528" y="168" width="24" height="24" fill="#9fd8f5" opacity="1"/>
<rect x="552" y="168" width="24" height="24" fill="#9fd8f5" opacity="1"/>
<rect x="72" y="192" width="24" height="24" fill="#9fd8f5" opacity="1"/>
<rect x="96" y="192" width="24" height="24" fill="#9fd8f5" opacity="1"/>
<rect x="120" y="192" width="24" height="24" fill="#9fd8f5" opacity="1"/>
<rect x="144" y="192" width="24" height="24" fill="#9fd8f5" opacity="1"/>
<rect x="168" y="192" width="24" height="24" fill="#9fd8f5" opacity="1"/>
<rect x="240" y="192" width="24" height="24" fill="#4a3358" opacity="1"/>
<rect x="264" y="192" width="24" height="24" fill="#4a3358" opacity="1"/>
<rect x="288" y="192" width="24" height="24" fill="#4a3358" opacity="1"/>
<rect x="312" y="192" width="24" height="24" fill="#4a3358" opacity="1"/>
<rect x="336" y="192" width="24" height="24" fill="#4a3358" opacity="1"/>
<rect x="360" y="192" width="24" height="24" fill="#4a3358" opacity="1"/>
<rect x="432" y="192" width="24" height="24" fill="#9fd8f5" opacity="1"/>
<rect x="456" y="192" width="24" height="24" fill="#9fd8f5" opacity="1"/>
<rect x="480" y="192" width="24" height="24" fill="#9fd8f5" opacity="1"/>
<rect x="504" y="192" width="24" height="24" fill="#9fd8f5" opacity="1"/>
<rect x="528" y="192" width="24" height="24" fill="#9fd8f5" opacity="1"/>
<rect x="24" y="216" width="24" height="24" fill="#9fd8f5" opacity="1"/>
<rect x="48" y="216" width="24" height="24" fill="#9fd8f5" opacity="1"/>
<rect x="120" y="216" width="24" height="24" fill="#4a3358" opacity="1"/>
<rect x="144" y="216" width="24" height="24" fill="#4a3358" opacity="1"/>
<rect x="192" y="216" width="24" height="24" fill="#4a3358" opacity="1"/>
<rect x="216" y="216" width="24" height="24" fill="#4a3358" opacity="1"/>
<rect x="240" y="216" width="24" height="24" fill="#4a3358" opacity="1"/>
<rect x="264" y="216" width="24" height="24" fill="#4a3358" opacity="1"/>
<rect x="288" y="216" width="24" height="24" fill="#4a3358" opacity="1"/>
<rect x="312" y="216" width="24" height="24" fill="#4a3358" opacity="1"/>
<rect x="336" y="216" width="24" height="24" fill="#4a3358" opacity="1"/>
<rect x="360" y="216" width="24" height="24" fill="#4a3358" opacity="1"/>
<rect x="384" y="216" width="24" height="24" fill="#4a3358" opacity="1"/>
<rect x="408" y="216" width="24" height="24" fill="#4a3358" opacity="1"/>
<rect x="456" y="216" width="24" height="24" fill="#4a3358" opacity="1"/>
<rect x="480" y="216" width="24" height="24" fill="#4a3358" opacity="1"/>
<rect x="552" y="216" width="24" height="24" fill="#9fd8f5" opacity="1"/>
<rect x="576" y="216" width="24" height="24" fill="#9fd8f5" opacity="1"/>
<rect x="24" y="240" width="24" height="24" fill="#9fd8f5" opacity="1"/>
<rect x="168" y="240" width="24" height="24" fill="#4a3358" opacity="1"/>
<rect x="192" y="240" width="24" height="24" fill="#4a3358" opacity="1"/>
<rect x="216" y="240" width="24" height="24" fill="#4a3358" opacity="1"/>
<rect x="240" y="240" width="24" height="24" fill="#4a3358" opacity="1"/>
<rect x="264" y="240" width="24" height="24" fill="#4a3358" opacity="1"/>
<rect x="288" y="240" width="24" height="24" fill="#4a3358" opacity="1"/>
<rect x="312" y="240" width="24" height="24" fill="#4a3358" opacity="1"/>
<rect x="336" y="240" width="24" height="24" fill="#4a3358" opacity="1"/>
<rect x="360" y="240" width="24" height="24" fill="#4a3358" opacity="1"/>
<rect x="384" y="240" width="24" height="24" fill="#4a3358" opacity="1"/>
<rect x="408" y="240" width="24" height="24" fill="#4a3358" opacity="1"/>
<rect x="432" y="240" width="24" height="24" fill="#4a3358" opacity="1"/>
<rect x="576" y="240" width="24" height="24" fill="#9fd8f5" opacity="1"/>
<rect x="168" y="264" width="24" height="24" fill="#4a3358" opacity="1"/>
<rect x="192" y="264" width="24" height="24" fill="#4a3358" opacity="1"/>
<rect x="216" y="264" width="24" height="24" fill="#ff5aa5" opacity="1"/>
<rect x="240" y="264" width="24" height="24" fill="#4a3358" opacity="1"/>
<rect x="264" y="264" width="24" height="24" fill="#4a3358" opacity="1"/>
<rect x="288" y="264" width="24" height="24" fill="#4a3358" opacity="1"/>
<rect x="312" y="264" width="24" height="24" fill="#4a3358" opacity="1"/>
<rect x="336" y="264" width="24" height="24" fill="#4a3358" opacity="1"/>
<rect x="360" y="264" width="24" height="24" fill="#4a3358" opacity="1"/>
<rect x="384" y="264" width="24" height="24" fill="#ff5aa5" opacity="1"/>
<rect x="408" y="264" width="24" height="24" fill="#4a3358" opacity="1"/>
<rect x="432" y="264" width="24" height="24" fill="#4a3358" opacity="1"/>
<rect x="168" y="288" width="24" height="24" fill="#4a3358" opacity="1"/>
<rect x="192" y="288" width="24" height="24" fill="#4a3358" opacity="1"/>
<rect x="216" y="288" width="24" height="24" fill="#4a3358" opacity="1"/>
<rect x="240" y="288" width="24" height="24" fill="#4a3358" opacity="1"/>
<rect x="264" y="288" width="24" height="24" fill="#4a3358" opacity="1"/>
<rect x="288" y="288" width="24" height="24" fill="#4a3358" opacity="1"/>
<rect x="312" y="288" width="24" height="24" fill="#4a3358" opacity="1"/>
<rect x="336" y="288" width="24" height="24" fill="#4a3358" opacity="1"/>
<rect x="360" y="288" width="24" height="24" fill="#4a3358" opacity="1"/>
<rect x="384" y="288" width="24" height="24" fill="#4a3358" opacity="1"/>
<rect x="408" y="288" width="24" height="24" fill="#4a3358" opacity="1"/>
<rect x="432" y="288" width="24" height="24" fill="#4a3358" opacity="1"/>
<rect x="192" y="312" width="24" height="24" fill="#4a3358" opacity="1"/>
<rect x="216" y="312" width="24" height="24" fill="#4a3358" opacity="1"/>
<rect x="240" y="312" width="24" height="24" fill="#4a3358" opacity="1"/>
<rect x="264" y="312" width="24" height="24" fill="#4a3358" opacity="1"/>
<rect x="288" y="312" width="24" height="24" fill="#4a3358" opacity="1"/>
<rect x="312" y="312" width="24" height="24" fill="#4a3358" opacity="1"/>
<rect x="336" y="312" width="24" height="24" fill="#4a3358" opacity="1"/>
<rect x="360" y="312" width="24" height="24" fill="#4a3358" opacity="1"/>
<rect x="384" y="312" width="24" height="24" fill="#4a3358" opacity="1"/>
<rect x="408" y="312" width="24" height="24" fill="#4a3358" opacity="1"/>
<rect x="192" y="336" width="24" height="24" fill="#4a3358" opacity="1"/>
<rect x="216" y="336" width="24" height="24" fill="#5d4170" opacity="1"/>
<rect x="240" y="336" width="24" height="24" fill="#5d4170" opacity="1"/>
<rect x="264" y="336" width="24" height="24" fill="#5d4170" opacity="1"/>
<rect x="288" y="336" width="24" height="24" fill="#5d4170" opacity="1"/>
<rect x="312" y="336" width="24" height="24" fill="#5d4170" opacity="1"/>
<rect x="336" y="336" width="24" height="24" fill="#5d4170" opacity="1"/>
<rect x="360" y="336" width="24" height="24" fill="#5d4170" opacity="1"/>
<rect x="384" y="336" width="24" height="24" fill="#5d4170" opacity="1"/>
<rect x="408" y="336" width="24" height="24" fill="#4a3358" opacity="1"/>
<rect x="216" y="360" width="24" height="24" fill="#5d4170" opacity="1"/>
<rect x="240" y="360" width="24" height="24" fill="#5d4170" opacity="1"/>
<rect x="264" y="360" width="24" height="24" fill="#5d4170" opacity="1"/>
<rect x="288" y="360" width="24" height="24" fill="#5d4170" opacity="1"/>
<rect x="312" y="360" width="24" height="24" fill="#5d4170" opacity="1"/>
<rect x="336" y="360" width="24" height="24" fill="#5d4170" opacity="1"/>
<rect x="360" y="360" width="24" height="24" fill="#5d4170" opacity="1"/>
<rect x="384" y="360" width="24" height="24" fill="#5d4170" opacity="1"/>
<rect x="216" y="384" width="24" height="24" fill="#3a2846" opacity="1"/>
<rect x="240" y="384" width="24" height="24" fill="#3a2846" opacity="1"/>
<rect x="264" y="384" width="24" height="24" fill="#3a2846" opacity="1"/>
<rect x="288" y="384" width="24" height="24" fill="#3a2846" opacity="1"/>
<rect x="312" y="384" width="24" height="24" fill="#3a2846" opacity="1"/>
<rect x="336" y="384" width="24" height="24" fill="#3a2846" opacity="1"/>
<rect x="360" y="384" width="24" height="24" fill="#3a2846" opacity="1"/>
<rect x="384" y="384" width="24" height="24" fill="#3a2846" opacity="1"/>
<rect x="192" y="408" width="24" height="24" fill="#3a2846" opacity="1"/>
<rect x="216" y="408" width="24" height="24" fill="#3a2846" opacity="1"/>
<rect x="240" y="408" width="24" height="24" fill="#3a2846" opacity="1"/>
<rect x="264" y="408" width="24" height="24" fill="#3a2846" opacity="1"/>
<rect x="288" y="408" width="24" height="24" fill="#3a2846" opacity="1"/>
<rect x="312" y="408" width="24" height="24" fill="#3a2846" opacity="1"/>
<rect x="336" y="408" width="24" height="24" fill="#3a2846" opacity="1"/>
<rect x="360" y="408" width="24" height="24" fill="#3a2846" opacity="1"/>
<rect x="384" y="408" width="24" height="24" fill="#3a2846" opacity="1"/>
<rect x="408" y="408" width="24" height="24" fill="#3a2846" opacity="1"/>
<rect x="192" y="432" width="24" height="24" fill="#3a2846" opacity="1"/>
<rect x="216" y="432" width="24" height="24" fill="#1d1330" opacity="1"/>
<rect x="240" y="432" width="24" height="24" fill="#3a2846" opacity="1"/>
<rect x="264" y="432" width="24" height="24" fill="#3a2846" opacity="1"/>
<rect x="288" y="432" width="24" height="24" fill="#3a2846" opacity="1"/>
<rect x="312" y="432" width="24" height="24" fill="#3a2846" opacity="1"/>
<rect x="336" y="432" width="24" height="24" fill="#3a2846" opacity="1"/>
<rect x="360" y="432" width="24" height="24" fill="#3a2846" opacity="1"/>
<rect x="384" y="432" width="24" height="24" fill="#ff9ec6" opacity="1"/>
<rect x="408" y="432" width="24" height="24" fill="#ff9ec6" opacity="1"/>
<rect x="192" y="456" width="24" height="24" fill="#3a2846" opacity="1"/>
<rect x="216" y="456" width="24" height="24" fill="#3a2846" opacity="1"/>
<rect x="240" y="456" width="24" height="24" fill="#3a2846" opacity="1"/>
<rect x="264" y="456" width="24" height="24" fill="#3a2846" opacity="1"/>
<rect x="288" y="456" width="24" height="24" fill="#3a2846" opacity="1"/>
<rect x="312" y="456" width="24" height="24" fill="#3a2846" opacity="1"/>
<rect x="336" y="456" width="24" height="24" fill="#3a2846" opacity="1"/>
<rect x="360" y="456" width="24" height="24" fill="#3a2846" opacity="1"/>
<rect x="384" y="456" width="24" height="24" fill="#ff9ec6" opacity="1"/>
<rect x="408" y="456" width="24" height="24" fill="#ff9ec6" opacity="1"/>
<rect x="216" y="480" width="24" height="24" fill="#3a2846" opacity="1"/>
<rect x="240" y="480" width="24" height="24" fill="#3a2846" opacity="1"/>
<rect x="264" y="480" width="24" height="24" fill="#3a2846" opacity="1"/>
<rect x="288" y="480" width="24" height="24" fill="#3a2846" opacity="1"/>
<rect x="312" y="480" width="24" height="24" fill="#3a2846" opacity="1"/>
<rect x="336" y="480" width="24" height="24" fill="#3a2846" opacity="1"/>
<rect x="360" y="480" width="24" height="24" fill="#3a2846" opacity="1"/>
<rect x="384" y="480" width="24" height="24" fill="#3a2846" opacity="1"/>
<g transform="translate(72,72)"><rect x="-72" y="186" width="768" height="6" fill="#ff5252" opacity="0.4"/><rect x="-72" y="193" width="768" height="6" fill="#ff9e4a" opacity="0.4"/><rect x="-72" y="200" width="768" height="6" fill="#ffd94a" opacity="0.4"/><rect x="-72" y="207" width="768" height="6" fill="#33c47f" opacity="0.4"/><rect x="-72" y="214" width="768" height="6" fill="#5aa8d8" opacity="0.4"/><rect x="-72" y="221" width="768" height="6" fill="#836EF9" opacity="0.4"/></g>
</svg>